<?xml version="1.0" encoding="UTF-8"?><svg id="uuid-44e93694-c870-4082-90d9-a62ec9766f82" xmlns="http://www.w3.org/2000/svg" xmlns:xlink="http://www.w3.org/1999/xlink" viewBox="0 0 225.9 228.35">
<title>Manchester United F.C. logo - Brandlogos.net</title><defs><radialGradient id="uuid-07ab0f7f-1bf7-4963-ae58-c4b86e396b52" cx="462.39" cy="-352.09" fx="462.39" fy="-352.09" r="9.06" gradientTransform="translate(-279.89 .34) scale(.85 -.63)" gradientUnits="userSpaceOnUse"><stop offset="0" stop-color="#ffe500"/><stop offset=".5" stop-color="#ffe500"/><stop offset="1" stop-color="#e15007"/></radialGradient><radialGradient id="uuid-dece83b9-388a-49a6-ab76-6913fe2abcb3" cx="440.25" cy="-314.26" fx="440.25" fy="-314.26" r="9.51" gradientTransform="translate(-285.09 -21.86) scale(.86 -.77)" xlink:href="#uuid-07ab0f7f-1bf7-4963-ae58-c4b86e396b52"/><clipPath id="uuid-1b92a415-89e8-4b71-b822-9a5516bb542c"><path d="M69.73,67.52v89.96l43.01,27.64,43.01-27.64.06-89.82c-1.38-1.21-4.24-3.88-6.48-5.27h-73.39c-1.86,1.3-5.58,4.44-6.22,5.13Z" style="fill:none;"/></clipPath><linearGradient id="uuid-3315e489-c6ee-4b49-824b-390621710d1a" x1="416.62" y1="-152.56" x2="416.62" y2="-195.35" gradientTransform="translate(-306 -56.3) scale(1 -1)" gradientUnits="userSpaceOnUse"><stop offset="0" stop-color="#8f0904"/><stop offset=".25" stop-color="#b40509"/><stop offset="1" stop-color="#da020e"/></linearGradient><radialGradient id="uuid-551aee16-03f9-42db-94ff-358a2cc1a29b" cx="451.34" cy="-118.21" fx="451.34" fy="-118.21" r="11.44" gradientTransform="translate(-279.36 -81.22) scale(.81 -.78)" xlink:href="#uuid-07ab0f7f-1bf7-4963-ae58-c4b86e396b52"/><radialGradient id="uuid-95350727-aa56-47f2-a33c-9d791cd592d9" cx="43.81" cy="-102.14" fx="43.81" fy="-102.14" r="6.63" gradientTransform="translate(-198.34 43.48) rotate(-60.27) scale(2.19 -1.93)" xlink:href="#uuid-07ab0f7f-1bf7-4963-ae58-c4b86e396b52"/><linearGradient id="uuid-908be05b-5b49-416e-a019-4e0305a8ebbf" x1="321.06" y1="-111.46" x2="324.59" y2="-115.35" gradientTransform="translate(-306 -56.3) scale(1 -1)" gradientUnits="userSpaceOnUse"><stop offset="0" stop-color="#ffe500"/><stop offset=".5" stop-color="#ffe500"/><stop offset="1" stop-color="#e15007"/></linearGradient><linearGradient id="uuid-f7263d96-55cc-4b7f-8e03-89a13605ef5d" x1="341.58" y1="-196.89" x2="366" y2="-224.91" gradientTransform="translate(-306 -56.3) scale(1 -1)" gradientUnits="userSpaceOnUse"><stop offset="0" stop-color="#740703"/><stop offset="1" stop-color="#da020e" stop-opacity="0"/></linearGradient><linearGradient id="uuid-b7cffa28-d543-4404-950a-4f7f088e2e22" x1="-152.26" y1="-196.89" x2="-127.85" y2="-224.91" gradientTransform="translate(37.25 -56.3) rotate(-180)" xlink:href="#uuid-f7263d96-55cc-4b7f-8e03-89a13605ef5d"/><linearGradient id="uuid-1fdc36a0-f4d5-4c4d-965b-339c778d1411" x1="515.13" y1="-151.49" x2="501.92" y2="-139.06" xlink:href="#uuid-f7263d96-55cc-4b7f-8e03-89a13605ef5d"/><linearGradient id="uuid-aec5f448-75cf-48eb-824a-b32df8131d03" x1="20.19" y1="-152.82" x2="6.2" y2="-138.05" gradientTransform="translate(37.79 -56.3) rotate(-180)" xlink:href="#uuid-f7263d96-55cc-4b7f-8e03-89a13605ef5d"/><radialGradient id="uuid-2344701b-97e3-4cb4-8e75-8e9dc61f4869" cx="-154.84" cy="-118.21" fx="-154.84" fy="-118.21" r="11.44" gradientTransform="translate(11.14 -81.22) rotate(-180) scale(.81 .78)" xlink:href="#uuid-07ab0f7f-1bf7-4963-ae58-c4b86e396b52"/><radialGradient id="uuid-9a660de7-2634-443a-91bf-8abb21d9a9a9" cx="397" cy="-54.84" fx="397" fy="-54.84" r="6.42" gradientTransform="translate(-322.35 -51.31) scale(1.1 -1.05)" xlink:href="#uuid-07ab0f7f-1bf7-4963-ae58-c4b86e396b52"/><radialGradient id="uuid-07f8939c-6bb4-4ad0-9f78-1c7123be1638" cx="-67.78" cy="120.01" fx="-67.78" fy="120.01" r="6.63" gradientTransform="translate(-69.88 43.48) rotate(-119.73) scale(2.19 1.93)" xlink:href="#uuid-07ab0f7f-1bf7-4963-ae58-c4b86e396b52"/><linearGradient id="uuid-320e95b3-df4f-49b1-a496-19b40f688175" x1="-172.67" y1="-111.46" x2="-169.13" y2="-115.35" gradientTransform="translate(37.79 -56.3) rotate(-180)" xlink:href="#uuid-908be05b-5b49-416e-a019-4e0305a8ebbf"/><radialGradient id="uuid-93ed3754-c8c9-4a14-a790-0c9b0e70f54c" cx="-135.54" cy="-314.26" fx="-135.54" fy="-314.26" r="9.51" gradientTransform="translate(18.63 -21.86) rotate(-180) scale(.86 .77)" xlink:href="#uuid-07ab0f7f-1bf7-4963-ae58-c4b86e396b52"/><radialGradient id="uuid-79b055a0-30c4-47ef-8e36-c82fd6c72b1b" cx="315.65" cy="-176.2" fx="315.65" fy="-176.2" r="14.57" gradientTransform="translate(-307.78 -57.08) scale(1.04 -1.02)" gradientUnits="userSpaceOnUse"><stop offset="0" stop-color="#da030e" stop-opacity="0"/><stop offset=".88" stop-color="#da020e" stop-opacity="0"/><stop offset="1" stop-color="#da020e"/></radialGradient><radialGradient id="uuid-e48a9d32-27c3-40c0-b189-b0b7ff5beff6" cx="264.74" cy="-176.22" fx="264.74" fy="-176.22" r="14.57" gradientTransform="translate(-70.12 -57.18) scale(1.04 -1.02)" xlink:href="#uuid-79b055a0-30c4-47ef-8e36-c82fd6c72b1b"/></defs><g id="uuid-1318d4c0-e9af-4840-86c7-d4649b1c41cd"><path id="uuid-e2a56b30-856f-4670-bc1a-4b8f00c22957" d="M124.12,219.1c-.91,2.68-3.81,9.25-10.84,9.25-7.99,0-10.76-8.65-10.9-9.01l-.24-.82s6.88.57,10.67.57,10.26-.37,11.31-.57v.58h0Z"/><path id="uuid-9e74a067-dbdc-4504-8719-181d93f57056" d="M145.09,214.84l1.64.21c-1.96,5.11-5.47,10.84-12.36,10.84s-10.03-3.89-11.42-6.49l-1.17-.72s11.57-.37,23.3-3.85"/><path id="uuid-4953acd5-1dc7-4d5e-a4dd-ad7e9b1a3c8a" d="M81.71,214.84l-1.64.21c1.95,5.11,5.48,10.84,12.38,10.84s10.28-4.09,11.76-6.49l.8-.72s-11.55-.37-23.3-3.85"/><path id="uuid-8bd10072-ab0d-443d-b28d-afff1ed06169" d="M118.89,219.65c-1.09,1.56-1.82,1.48-3.11,1.48-.67,0-1.63.54-1.62,1.53.03.78.66,1.41,1.71,1.41,2.38,0,4.2-3.3,4.68-4.7,0,0,1.39-.06,1.8-.1,0,0-2.49,7.45-8.98,7.45s-9.15-7.36-9.15-7.36c0,0,5.48.33,8.6.33s5.13-.03,6.07-.05" style="fill:url(#uuid-07ab0f7f-1bf7-4963-ae58-c4b86e396b52);"/><path id="uuid-25f7d094-259c-410b-8726-2fa7e8578181" d="M82.6,216.36c4.22,1.12,7.24,2.07,14.35,2.93,0,0-.23.72-1.77.66-.59-.04-.67-.19-.88-.22-.46-.08-1.12.38-1.05,1.15.07.54.53,1.22,2.1,1.22s3.42-1.29,4.35-2.49c0,0,.94.22,1.92.27,0,0-3.04,4.25-9.01,4.25-6.56,0-9-5.88-10.02-7.76" style="fill:url(#uuid-dece83b9-388a-49a6-ab76-6913fe2abcb3);"/><path id="uuid-c519e2e7-e12c-4eed-bfda-5f53c37029e3" d="M112.74,181.42c22.65,0,47.73-13.9,65.35-33.94,1.92-2.17,5.13-6.28,12.78-6.28s17.85,6.98,16.66,19.69c-.89,9.26-14.12,30.14-36.78,42.99-22.65,12.9-43.51,15.66-58.01,15.66s-35.35-2.76-58.01-15.66c-22.65-12.85-35.88-33.74-36.76-42.99-1.19-12.71,9-19.69,16.64-19.69s10.89,4.12,12.81,6.28c17.59,20.04,42.69,33.94,65.33,33.94h0Z" style="fill:#ffe500; stroke:#000; stroke-miterlimit:3.86; stroke-width:2.1px;"/><path id="uuid-bc07ed3f-4979-4d3a-9e8b-4e24fd101e14" d="M112.55,184.5c-22.79,0-48.71-13.45-67.81-35.2-1.94-2.21-4.42-5.05-10.31-5.05-3.44,0-7.34,1.84-9.93,4.69-1.95,2.12-4.13,5.85-3.61,11.57.76,7.81,13.14,28.03,35.2,40.59,17.79,10.12,36.78,15.23,56.44,15.23s38.68-5.11,56.46-15.23c22.06-12.56,34.46-32.78,35.19-40.59.55-5.72-1.65-9.45-3.57-11.57-2.6-2.85-6.51-4.69-9.93-4.69-5.91,0-8.38,2.84-10.31,5.05-19.09,21.75-45.05,35.2-67.84,35.2h0Z" style="fill:#da020e;"/><path id="uuid-b6c60d8d-1fa2-4377-a5f7-6369754f3025" d="M210.57,71.08l.08-5.28c1.63,1.24,4.69,1.26,6.48-.65.82-.87,1.28-2.22,1.21-3.6-.08-1.56-.79-3.19-1.95-4.33-6.61-6.46-12.48-12.91-12.48-12.91-.61-.96-1.56-1.65-2.11-1.89-.81-.39-3.69-1.7-5.88,1.63-1.98,3.02-1.68,7.27-1.3,8.83l6.2,8.45c2.12,2.69,8.1,8.42,9.76,9.75"/><path id="uuid-b65438e6-506d-43a5-b78e-211248a87756" d="M78.08,16.31c7.8-2.62,14.94-4.79,24.55-5.64l1.46-.82c-5.37-4.24-10.7-7.13-16.01-7.13-3.33,0-10.12,2.27-11.63,14.24l1.63-.65h0Z"/><path id="uuid-7f52f6e8-3528-4d30-bca2-805e3bcc0432" d="M147.42,16.31c-7.81-2.62-14.94-4.79-24.54-5.64l-1.48-.82c5.39-4.24,10.71-7.13,16.03-7.13,3.34,0,10.09,2.27,11.63,14.24l-1.64-.65Z"/><path id="uuid-87d633b2-e332-4030-a239-446e71ac9cf3" d="M103.92,10.28c3.93-7.55,7.52-10.28,9.52-10.28,2.48,0,5.4,3.94,7.7,9.05l.48,1.16-2.02-.16c-1.32-.25-5.09-.3-6.53-.3s-4.66,0-6.58.18l-2.58.35h0Z"/><path id="uuid-85610579-caf6-486c-ac60-af059d1eb845" d="M72.97,180.36l-5.68,10.27c-1.72,3.09-3.48,5.05-6.38,3.38-2.85-1.61-2.19-3.95-.44-7.14l5.7-10.29-4.6-2.55-6.02,10.87c-3.31,5.98.86,9.7,4.12,11.5,3.49,1.93,8.56,3.37,11.85-2.57l6.06-10.92-4.61-2.55h0ZM146.06,201.53l-1.92-5.89,5.7-1.84-.79-2.45-5.71,1.85-1.62-5.04,5.84-1.92-.79-2.43-10.69,3.47,5.94,18.26,11.78-3.82-.78-2.44-6.97,2.24ZM158.27,177.9l-6.5,3.75,9.63,16.7,6.48-3.75c6.7-3.86,7.33-9.71,4.7-14.4-3.17-5.57-8.41-5.7-14.3-2.3M168.1,182.98c2.44,4.27,1.94,7.39-1.81,9.54l-1.79,1.04-7.07-12.22,1.92-1.12c4.51-2.59,7.07-.29,8.75,2.75M116.06,190.81l.35,2.5,5.38-.76,2.32,16.51,5-.69-2.32-16.5,5.3-.74-.37-2.54-15.66,2.21h0ZM111.51,190.97l-5.04-.28-1.01,19.18,5.04.27,1-19.17ZM96.22,188.62l-3.51,13.11-6.56-15.81-4.08-1.1-4.97,18.56,4.45,1.18,3.54-13.21,6.66,15.94,3.99,1.08,4.95-18.56-4.47-1.18h0Z" style="fill:#ffe500;"/><path id="uuid-450cd6be-ffdb-477b-90bf-131a6592bad3" d="M69.73,67.52v89.96l43.01,27.64,43.01-27.64.06-89.82c-1.38-1.21-4.24-3.88-6.48-5.27h-73.39c-1.86,1.3-5.58,4.44-6.22,5.13Z" style="fill:#ffe500;"/><g style="clip-path:url(#uuid-1b92a415-89e8-4b71-b822-9a5516bb542c);"><g id="uuid-3455ffe3-c1f3-4fbd-8f7e-c516e372cfcf"><polyline points="69.73 30.98 69.73 67.52 69.73 157.48 112.74 185.12 155.75 157.48 155.82 31.12" style="fill:none; stroke:#b54005; stroke-miterlimit:3.86; stroke-width:10px;"/></g></g><path id="uuid-172fd452-d189-4db8-8cca-2294ccfc6544" d="M129.93,132.07v-3.34s-.89-1.37-3.09-1.37-3.51.66-3.51,1.21c0,.9,1.96,3.5,6.6,3.5M112.59,102.47l3.32-5.8,2.61,5.8h4.31c-2.59,2.44-3.66,6.12-3.66,8.58v2.68c0,1.14-.57,3.02-.57,3.02,0,0,3.75,2.85,4.32,3.35.24.19.5.3.33.8-.3.83-2.84,1.98-3.1,2.2-.58.51-.73.82-.58,1.32.18.49.66.58,1.63.23.99-.32,3.02-1.39,4.73-2.12,1.7-.74,3.99-.55,3.99-.55v-3.28h-6.44v-10.41l-1.14-1.83,2.84-5.06,2.86,5.1-1.12,1.8v5.44h3.28v-5.44l-1.13-1.8,2.85-5.06,2.84,5.06-1.12,1.8v5.44h3.31v-5.44l-1.17-1.8,2.86-5.06,2.85,5.06-1.14,1.8.05,10.4h-6.5v4.81c1.47,1.38,2.86,4.52,2.86,6.36s-1.23,2.69-1.23,2.69c.41,1.48.33,2.1.16,3.44-.16,1.37-1.86,3.49-1.86,3.49v24.85c0,1.69-3.91,1.52-3.91.08v-24.37c-2.21-2.42-8.24-4.32-8.24-4.32-2.21,2.21-3.57,6.05-3.57,6.05.96.67,2.45,0,3.01-.65.55-.65,1.69-.82,2.34-.41.64.41.8.57.58,1.53-.25,1.01-.66,2.62-.66,3.75s1.3.9,2.27.98c1.96.17,2.29,2.37,2.12,3.59-.16,1.23-.74,3.84-.74,5.47s.09,3.23.25,4.15c.17.89.49,1.87.4,3.02-.1,1.54-1.05,1.79-2.03.8-.97-.98-14.58-15.48-14.58-15.48-.9,2.95,2.86,7.98,4.08,9.54,1.22,1.55,1.14,2.7.07,3.76-1.05,1.05-3.09,1.62-3.49,2.61-.42.96.98,3.91,3.84,7.58,2.85,3.66-3.27,6.11-6.93,6.84-3.68.72-3.68-1.8-3.42-3.19.24-1.37.24-2.21.15-3.41-.08-1.23-1.21-2.93-2.77-4.96-1.54-2.05-1.54-3.91-.9-8.65.65-4.73.5-7.75.5-7.75,0,0-1.63.07-4,0-2.35-.09-4.31-1.45-4.47-7.16-.16-5.69-.3-19.29-.68-20.71-.38-1.41-1.9-1.67-2.54-1.86-.67-.16-.7-1.13-.05-1.47,1.7-.83,3.74-2.91,2.99-4.21-.76-1.3-3.76-1.03-5.76-.05-2.01.97-4.13,3.11-4.68,3.69-.53.58-.98.58-.93-.04.07-.66-.37-3.78-.63-4.85-.29-1.09-1.26-3.14-1.59-3.69-.32-.55,0-.76.55-.55.53.22,1.74.72,2.87,1.02,1.14.34,2.23-.22,2.75-1.29.54-1.1,1.6-3.43,2.15-4.46.53-1.03,1.4-.8,2.11-.64.7.17,1.36.6,2,.86.65.27,1.19.22,1.42-.11.22-.31.49-.43.88-1.24.38-.81.85-.42.91-.1,1.94,11.69,7.01,12.22,7.01,12.22-.76,1.95-2.54,5.05-2.97,5.83-.46.73-.63,1.78-.74,2.58-.09.81.28,8.53.82,11.35.55,2.83,2.28,1.73,2.84.86.52-.86,2.22-4.46,2.22-4.46,0,0,.42-.98.42-1.79s-1.41-2.59-1.73-3.15c-.34-.56-1.52-1.64-1.52-4.36s2.44-4.59,3.32-5.3c.87-.71.87-1.7.75-2.3-.38-2.1-2.61-6.51-3.68-8.2-1.1-1.68-3.21-4.88-3.21-4.88h4.4l2.83-5.88,3.08,5.91,3.22.03h0ZM111.87,120.29c1.44-2.37,2.04-4.84,2.04-4.84h-4.15s.67,2.52,2.11,4.84M107.55,108.33c.17,1.21,1.07,1.68,1.76,1.32.68-.38.57-1.36.06-2.15-.49-.77-1.5-1.63-1.81-1.5-.32.13-.12,1.61,0,2.33M115.78,106c-.3-.13-1.36.73-1.87,1.5-.49.79-.61,1.77.08,2.15.68.35,1.54-.12,1.76-1.32.12-.72.35-2.2.03-2.33" style="fill:url(#uuid-3315e489-c6ee-4b49-824b-390621710d1a);"/><path id="uuid-0f0d42ca-06f0-40cd-866f-561fad87ecbe" d="M73.1,89.95v5.42h79.36v-5.42h-5.85v.87h-67.66v-.87h-5.85Z" style="fill:#da020e;"/><path id="uuid-a6b6aa0d-489c-4678-bca0-4adfaa62e66b" d="M73.11,65.61h79.35v21.58h-79.35v-21.58Z" style="fill:#da020e;"/><path id="uuid-cfd5e87d-29c6-401c-aaf5-e81c0a4b6df3" d="M86.74,80.93l6.08,1.49,3.28-9.14v-2.31l-9.36,9.96ZM136.82,86.32v-2.81h-5.74v-2.37h4.69v-10.43h-4.32l-1.48-2.87-1.44,2.87h-4.33v10.43h4.71v2.37h-11.28v-2.37h4.69v-10.43h-4.33l-1.46-2.87-1.48,2.87h-4.31v10.43h4.71v2.37h-11.51v-2.37h4.7v-10.43h-4.33l-1.45-2.87-1.49,2.87h-4.32v10.43h4.72v2.37l-9.11.03-9.06-2.12,1.82,4.9h51.39Z" style="fill:#ffe500;"/><path id="uuid-e4f19d9a-d171-45e6-bf08-5601d3b410fc" d="M78.53,15.46c7.66-2.56,13.45-4.56,22.88-5.4-4.35-3.02-8.21-5.57-12.64-5.57-2.33,0-4.33.89-4.79,2.52-.43,1.48.74,2.13,1.16,2.03.43-.11.74-.24.64-.64-.11-.43.22-1.51,1.7-1.51s2.08,1.4,2.08,2.36-1.52,2.56-4.32,2.56-4.15-1.83-4.04-3.52c-1.32,1.94-2.09,3.9-2.66,7.17" style="fill:url(#uuid-551aee16-03f9-42db-94ff-358a2cc1a29b);"/><path id="uuid-44affc33-96fa-4ae7-bca0-9d891af5073a" d="M25.16,61.32l6.22-8.45c.36-1.55.64-5.8-1.35-8.82-2.17-3.33-5.04-2.02-5.88-1.63-.53.24-1.5.93-2.09,1.89,0,0-5.98,6.59-12.56,13.07-.93.92-1.95,2.61-2.04,4.17-.08,1.39.48,2.78,1.28,3.65,1.8,1.92,4.95,1.84,6.55.59l.11,5.28c1.66-1.33,7.63-7.06,9.75-9.75"/><path id="uuid-6fc32075-921b-4c42-b2c3-94318dfa2692" d="M112.74,49.03c35.42,0,55.57,33.25,59.97,39.08,7.81,10.43,17.38,18.89,28.46,16.1,16.28-4.17,15.43-28.28,15.43-28.28-3.93-2.83-10.62-6.39-22.83-23.69-11.95-16.96-39-42.08-81.04-42.08S43.65,35.27,31.73,52.23c-12.22,17.3-18.93,20.86-22.82,23.69,0,0-.88,24.12,15.41,28.28,11.08,2.8,20.63-5.67,28.46-16.1,4.38-5.84,24.55-39.08,59.96-39.08h0Z" style="fill:#ffe500; stroke:#000; stroke-miterlimit:3.86; stroke-width:2.1px;"/><path id="uuid-1a6f9df3-84e0-45d1-82bb-106d69e991bd" d="M112.74,45.87c34.15,0,54.46,28.97,61.8,39.42,9.72,12.97,17.95,17.87,25.85,15.86,11.42-2.91,12.84-18.63,13-23.39v-.19l-.13-.1c-4.03-2.79-10.77-7.42-22.06-23.42-6.74-9.56-32.31-40.77-78.47-40.77S41,44.48,34.27,54.04c-11.2,15.9-18.24,20.75-22.01,23.34l-.16.13.02.17c.15,4.77,1.58,20.58,12.97,23.46,7.92,2.01,16.16-2.89,25.85-15.86,7.34-10.45,27.67-39.42,61.8-39.42" style="fill:#da020e;"/><path id="uuid-f462ea6a-9e87-4c44-8052-f82de027bb20" d="M94.19,21.67c-6.27,1.33-10.39,5.95-9.04,12.21.79,3.38,3.8,9.61,13.35,7.58,2.65-.51,4.08-1.56,5.47-2.89l-1.74-2c-.65.73-1.63,1.79-3.83,2.25-4.62.98-7.37-2.76-8.05-5.99-1.02-4.78,1.77-8.07,4.91-8.75,2.25-.49,3.61.12,4.47.45h.03l.58-2.45c-1.51-.61-3.33-1.01-6.16-.41M146.59,49.22c3.58,2.16,7.49,1.79,9.32-1.24,1.33-2.12,1.34-3.87-.26-7.02-.41-.89-.95-1.53-1.31-2.34-.71-1.32-1.36-2.39-.75-3.41.67-1.11,2.22-1.2,3.63-.34,1.47.89,2.08,2.37,2.39,3.37l2.31-1c-.71-1.9-1.76-3.6-4.17-5.03-4.11-2.47-7.45-1.82-8.84.5-1.41,2.33-1.01,4.27.05,6.26,0,0,.66,1.13,1.04,1.9.93,1.55,2.01,3.51,1.25,4.74-.92,1.54-2.51,1.88-4.05.92-1.98-1.25-2.44-2.7-2.85-4.11l-2.54,1.09c.56,1.95,1.87,3.97,4.77,5.72M119.23,20.66l-.14,7.83-7.53-.11.11-7.85-5.04-.09-.34,19.2,5.05.11.16-8.8,7.54.14-.14,8.79,5.05.08.33-19.2-5.05-.08h0ZM191.5,81.64s2.96,1.49,6.21-1.43c2.72-2.44,1.81-5.79-1.03-8.93l-5.23-5.81-14.27,12.86,3.37,3.74,5.68-5.1,1.64,1.85-3.6,8.11,4.31,3.44,2.92-8.73h0ZM194.05,72.18c1.34,1.48,1.36,3.24-.2,4.61-1.51,1.39-3.44,1.07-4.91-.54l-.85-.96,4.83-4.36,1.13,1.24h0ZM171.78,67.28l4.78-3.97,3.83,4.56,1.98-1.65-3.85-4.58,4.04-3.4,3.95,4.7,1.96-1.63-7.21-8.6-14.7,12.35,7.94,9.48,1.98-1.65-4.7-5.61h0ZM166.27,38.42l-1.71,1.88,4.03,3.64-11.16,12.38,3.77,3.39,11.15-12.39,3.98,3.58,1.71-1.88-11.75-10.6ZM133.4,39.64l2.03-5.86,5.66,1.95.84-2.44-5.67-1.95,1.72-5.02,5.83,2,.82-2.42-10.62-3.65-6.24,18.19,11.7,4.01.83-2.42-6.91-2.38h0ZM72.6,30.23l7.21,11.5-16.06-5.99-3.57,2.24,10.18,16.31,3.88-2.44-7.26-11.61,16.22,6.02,3.5-2.2-10.2-16.3-3.91,2.47h0ZM50.14,47.6l-3.28,3.52,9.2,18.3,2.25-2.4-2.5-4.87,4.44-4.78,5.04,2.14,3.7-3.96-18.85-7.94h0ZM57.9,56.32l-3.33,3.58-3.43-6.59,6.76,3.01ZM39.3,59.21l-3.57,4.25,6.68,13.81-14.32-4.69-3.08,3.65,14.71,12.35,2.24-2.65-10.4-8.75,13.94,4.54,1.47-1.74-6.65-13.32,10.44,8.76,3.26-3.86-14.71-12.36h0Z" style="fill:#ffe500;"/><path id="uuid-50d9d2a8-df5a-4227-8324-71c5f318dfd7" d="M16.82,69l-.02-4.24c7.23-6.64,10.64-13.3,10.64-13.3,0,0-2.66-1-3.85-2.51-.59-.84-.81-1.99-.72-2.76.23-1.44,1.36-2.18,1.74-2.34.83-.36,2.38-1.17,4.1,1.2,1.83,2.56,1.35,7.42,1.1,8.54,0,0-3.37,5.87-12.99,15.42" style="fill:url(#uuid-95350727-aa56-47f2-a33c-9d791cd592d9);"/><path id="uuid-b7444258-3eef-4128-87be-ee5a11aabd9a" d="M24.82,52.23c-.98,1.7-3.43,5.81-9.65,11.63-1.03.97-3.61,1.79-5.07.15-.55-.64-.91-1.53-.85-2.56.07-1.2.79-2.59,1.51-3.21,1.25-1.06,6.59-6.45,10.39-10.69.11.77.77,2.07.77,2.07.52.72,1.16,1.76,2.9,2.61" style="fill:url(#uuid-908be05b-5b49-416e-a019-4e0305a8ebbf);"/><path id="uuid-1a7b14ab-e21b-4bcf-8e85-bac1d06fdd91" d="M112.55,184.5c-22.79,0-48.71-13.45-67.81-35.2-1.94-2.21-4.42-5.05-10.31-5.05-3.44,0-7.34,1.84-9.93,4.69-1.95,2.12-4.13,5.85-3.61,11.57.76,7.81,13.14,28.03,35.2,40.59,17.79,10.12,36.78,15.23,56.44,15.23" style="fill:url(#uuid-f7263d96-55cc-4b7f-8e03-89a13605ef5d);"/><path id="uuid-633227e6-acdd-4908-a0ec-c45e446ba557" d="M112.55,184.5c22.79,0,48.71-13.45,67.81-35.2,1.94-2.21,4.42-5.05,10.31-5.05,3.44,0,7.34,1.84,9.92,4.69,1.95,2.12,4.13,5.85,3.61,11.57-.76,7.81-13.14,28.03-35.2,40.59-17.79,10.12-36.78,15.23-56.44,15.23" style="fill:url(#uuid-b7cffa28-d543-4404-950a-4f7f088e2e22);"/><path id="uuid-c114f2e3-e685-4840-8a5d-42022698ee12" d="M174.54,85.29c9.72,12.97,17.95,17.87,25.85,15.86,11.42-2.91,12.84-18.63,13-23.39v-.19l-.13-.1c-4.03-2.79-10.77-7.42-22.06-23.42" style="fill:url(#uuid-1fdc36a0-f4d5-4c4d-965b-339c778d1411);"/><path id="uuid-1d6711ba-42bd-4473-afe8-a9cd30612c16" d="M50.97,85.29c-9.72,12.97-17.95,17.87-25.85,15.86-11.43-2.91-12.84-18.63-13-23.39v-.19l.13-.1c4.03-2.79,10.77-7.42,22.06-23.42" style="fill:url(#uuid-aec5f448-75cf-48eb-824a-b32df8131d03);"/><path id="uuid-8aa781c2-271e-4610-9daf-3c0d7f451ea2" d="M146.98,15.46c-7.66-2.56-13.45-4.56-22.88-5.4,4.35-3.02,8.21-5.57,12.64-5.57,2.33,0,4.33.89,4.79,2.52.43,1.48-.74,2.13-1.16,2.03-.44-.11-.74-.24-.64-.64.11-.43-.22-1.51-1.7-1.51s-2.08,1.4-2.08,2.36,1.52,2.56,4.32,2.56,4.15-1.83,4.04-3.52c1.32,1.94,2.09,3.9,2.66,7.17" style="fill:url(#uuid-2344701b-97e3-4cb4-8e75-8e9dc61f4869);"/><path id="uuid-477651ac-7246-47e4-b2e2-13e4ab326557" d="M113.1,5.41c-.24,1.46-1.92,2.87-3.63,2.87h0c-1.71,0-2.22-.27-2.22-.27h0c-.26.4-.49.71-.75,1.15h0c1.55-.06,5.14-.16,6.58-.16h0c1.43,0,5.41.21,6.27.27h0c-1.38-3.24-4.05-7.74-5.9-7.74h0c-.06,0-.14,0-.24,0h0c-.43,0-1.93,1.3-2.73,2.43-1.05,1.5,2.62,1.46,2.62,1.46Z" style="fill:url(#uuid-9a660de7-2634-443a-91bf-8abb21d9a9a9);"/><path id="uuid-b15b55af-fd1e-41f4-84bd-4e21db1a37a4" d="M208.7,69l.02-4.24c-7.23-6.64-10.63-13.3-10.63-13.3,0,0,2.66-1,3.84-2.51.59-.84.82-1.99.72-2.76-.23-1.44-1.36-2.18-1.74-2.34-.83-.36-2.37-1.17-4.1,1.2-1.83,2.56-1.35,7.42-1.1,8.54,0,0,3.37,5.87,12.99,15.42" style="fill:url(#uuid-07f8939c-6bb4-4ad0-9f78-1c7123be1638);"/><path id="uuid-d51c21bd-c39a-4043-8eef-62b7e2ecc6a7" d="M200.7,52.23c.97,1.7,3.43,5.81,9.65,11.63,1.03.97,3.61,1.79,5.07.15.55-.64.91-1.53.85-2.56-.07-1.2-.79-2.59-1.51-3.21-1.25-1.06-6.59-6.45-10.39-10.69-.11.77-.77,2.07-.77,2.07-.52.72-1.16,1.76-2.9,2.61" style="fill:url(#uuid-320e95b3-df4f-49b1-a496-19b40f688175);"/><path id="uuid-63c65eed-2bf3-468a-b21b-5bbae3549571" d="M69.73,67.52v89.96l43.01,27.64,43.01-27.64.06-89.82c-1.38-1.21-4.24-3.88-6.48-5.27h-73.39c-1.86,1.3-5.58,4.44-6.22,5.13Z" style="fill:none; stroke:#000; stroke-miterlimit:3.86; stroke-width:2.1px;"/><path id="uuid-4c251ac8-9117-44c0-9911-a6673577d17b" d="M144.28,216.36c-4.22,1.12-7.24,2.07-14.35,2.93,0,0,.23.72,1.77.66.59-.04.67-.19.88-.22.46-.08,1.12.38,1.05,1.15-.07.54-.52,1.22-2.1,1.22s-3.42-1.29-4.35-2.49c0,0-.94.22-1.92.27,0,0,3.04,4.25,9.01,4.25,6.56,0,9-5.88,10.02-7.76" style="fill:url(#uuid-93ed3754-c8c9-4a14-a790-0c9b0e70f54c);"/><path id="uuid-b2106069-7357-4a3a-a323-d2592df5e20e" d="M1.05,124.02c0-10.85,8.81-19.68,19.67-19.68s19.67,8.83,19.67,19.68-8.8,19.68-19.67,19.68S1.05,134.89,1.05,124.02Z" style="fill:#ffe500; stroke:#000; stroke-miterlimit:3.86; stroke-width:2.1px;"/><path id="uuid-0f114334-9cbd-4bc1-8016-183a1ae2b881" d="M5.55,123.29c0-8.23,6.79-14.92,15.17-14.92s15.17,6.69,15.17,14.92-6.79,14.92-15.17,14.92-15.17-6.68-15.17-14.92Z" style="fill:url(#uuid-79b055a0-30c4-47ef-8e36-c82fd6c72b1b);"/><path id="uuid-99e7c4ed-674a-4751-ba3e-32f934781ab7" d="M24.9,137.54c-.86.27-1.24-.33-1.63-.76-1.53-1.76-1.92-6.45-1.92-7.07s.23-1.31.67-1.32c3.69-.07,6.33-1.14,8.75-3.15,2.42-1.98,3.47-4.24,3.68-4.64.21-.45.71-.37.81.25.1.52.3,1.45.3,2.46,0,6.76-4.56,12.28-10.65,14.25M21,138.15c-.11,0-.22.01-.32.01-2.72,0-5.72-1.04-7.49-2.05-1.84-1-2.53-5.72-2.53-8.1,0-7.76,3.18-12.39,3.7-13.29.51-.92,1.64-1.02,2.48-.79.86.25,1.17.4,2.16.69.52.17,1.57.38,2.36.52.79.19,1.64.36,1.13,1.83-.5,1.48-2.22,5.02-2.4,9.23-.17,3.81.34,7.59,1.2,9.91.57,1.5.57,2.06-.29,2.04M9.76,120.43c-.73-.38-1.6-2.26-1.89-2.8-.2-.39-.2-1.52.09-2,1.21-2.13,2.94-4.09,5.16-5.12.27-.12.65-.14.65.51,0,.35.19.89.2,1.24,0,.35.15,1.06-.29,1.62-.46.57-2.45,4.08-2.96,6.06-.08.44-.22.91-.95.49M9.35,132.89c-2.06-2.03-3.53-5.72-3.53-9.59,0-1.51.22-2.95.62-4.32,0,0,.37-.61.69-.09.25.38.58.77.86,1.28.31.51,1.9,1.72,1.77,2.71-.56,3.63-.06,8.45.11,9.26.15.8-.07,1.14-.52.75M15.85,109.24c1.53-.51,3.15-.79,4.83-.79,2.55,0,5.02.46,7.09,1.78.53.34.68.75.68,1.35,0,1.95-3.04,2.6-5.06,2.6s-4.52-.8-6.28-1.36c-1.76-.55-2.14-1.57-2.14-2.03s.34-1.36.89-1.54M29.59,111.4c.27.22.99.8.99.8,1.42,1.29,2.7,2.77,3.45,4.54.93,2.23-1.96,5.61-2.8,6.39-3.82,3.59-6.22,3.52-7.57,3.72-1.36.2-2.23-.65-2.2-1.67.09-2.99,2.21-8.13,2.82-9.1.39-.62,1.07-1.01,1.07-1.01,1.42-.39,2.8-.98,3.51-1.8.7-.82.74-1.87.74-1.87M20.83,107.48c-9.14,0-16.54,7.4-16.54,16.54s7.4,16.54,16.54,16.54,16.55-7.4,16.55-16.54-7.42-16.54-16.55-16.54" style="fill:#da020e;"/><path id="uuid-c58a98e1-4cf9-49e1-83be-ebcd3313b842" d="M185.5,123.98c0-10.85,8.81-19.65,19.67-19.65s19.67,8.79,19.67,19.65-8.8,19.68-19.67,19.68-19.67-8.81-19.67-19.68Z" style="fill:#ffe500; stroke:#000; stroke-miterlimit:3.86; stroke-width:2.1px;"/><path id="uuid-e2169c4d-8115-47be-a30c-b8bebea5268f" d="M216.7,132.82c-.43.43-.67.05-.49-.74.15-.79.65-5.63.09-9.25-.14-.98,1.46-2.19,1.76-2.71.29-.51.63-.9.87-1.27.33-.54.68.06.68.06.42,1.38.63,2.83.63,4.33,0,3.89-1.49,7.56-3.53,9.59M215.36,119.88c-.51-1.97-2.51-5.5-2.96-6.06-.45-.54-.31-1.27-.3-1.61,0-.35.2-.9.2-1.26,0-.62.38-.61.65-.49,2.23,1.03,3.94,2.97,5.17,5.11.27.49.28,1.61.08,1.99-.29.55-1.15,2.42-1.9,2.82-.74.41-.85-.07-.93-.49M212.88,136.06c-1.78.99-4.77,2.04-7.51,2.04h-.32c-.84.02-.86-.56-.29-2.06.83-2.3,1.36-6.1,1.18-9.9-.17-4.23-1.87-7.74-2.4-9.22-.51-1.47.34-1.65,1.14-1.82.79-.16,1.84-.39,2.36-.55.98-.3,1.29-.45,2.16-.69.84-.22,1.97-.11,2.49.79.5.92,3.7,5.57,3.7,13.32,0,2.37-.7,7.08-2.52,8.1M201.17,137.48c-6.11-1.98-10.65-7.5-10.65-14.25,0-.99.19-1.91.27-2.45.12-.62.58-.72.82-.26.21.42,1.28,2.68,3.68,4.66,2.44,2,5.05,3.08,8.76,3.16.45.02.66.68.66,1.32s-.38,5.31-1.91,7.06c-.41.45-.8,1.06-1.64.76M192.05,116.7c.73-1.77,2.01-3.27,3.43-4.54,0,0,.7-.59.98-.8,0,0,.06,1.06.76,1.85.7.8,2.07,1.43,3.49,1.8,0,0,.67.4,1.07,1.03.63.94,2.74,6.08,2.83,9.09.03,1.02-.84,1.87-2.2,1.68-1.36-.18-3.75-.14-7.57-3.71-.84-.78-3.73-4.16-2.79-6.39M198.29,110.17c2.09-1.32,4.54-1.79,7.09-1.79,1.69,0,3.29.29,4.83.79.57.18.9,1.09.9,1.54s-.37,1.48-2.15,2.03c-1.76.54-4.25,1.36-6.27,1.36s-5.07-.66-5.07-2.6c0-.59.15-1.01.67-1.34M205.22,107.44c-9.13,0-16.53,7.41-16.53,16.52s7.4,16.54,16.53,16.54,16.55-7.38,16.55-16.54-7.4-16.52-16.55-16.52" style="fill:#da020e;"/><path id="uuid-935cd65c-4b77-48e9-9f0c-f337d434f577" d="M190.23,123.21c0-8.23,6.79-14.92,15.17-14.92s15.17,6.69,15.17,14.92-6.79,14.92-15.17,14.92-15.17-6.68-15.17-14.92Z" style="fill:url(#uuid-e48a9d32-27c3-40c0-b189-b0b7ff5beff6);"/></g></svg>